<svg width="10" height="10" viewBox="0 0 10 10" fill="none" xmlns="http://www.w3.org/2000/svg">
<path d="M7.96199 5.10947L7.95674 5.35346C7.94539 5.89579 7.88636 6.44196 7.68715 6.91508C8.45678 5.95014 9.10427 4.70894 9.10427 3.26299C9.10427 2.00862 8.15341 0.991545 6.98123 0.991545C6.24996 0.991545 5.60554 1.38789 5.22444 1.9907C5.30182 1.99876 5.38013 2.01044 5.46023 2.0268L5.78807 2.09422C6.20095 1.57724 7.01562 0.839867 8.20595 2.24692C9.49705 3.77284 8.84188 4.90012 7.96199 5.10947Z" fill="#0C362F"/>
<path d="M2.03657 5.10905C1.15799 4.89892 0.504508 3.77164 1.79489 2.24669C2.99264 0.831165 3.80953 1.58612 4.21956 2.10325L4.56807 2.024C4.64495 2.00806 4.72018 1.99658 4.79427 1.9891C4.41294 1.38706 3.76963 0.991344 3.03858 0.991344C1.86641 0.991344 0.915002 2.00846 0.915002 3.26279C0.915002 3.26279 0.631348 4.80213 2.28349 6.7677C2.10765 6.30659 2.056 5.80469 2.04337 5.35484L2.03657 5.10905Z" fill="#0C362F"/>
<path d="M3.681 8.11564C4.10759 8.45812 4.59615 8.80557 5.16171 9.15301C5.16171 9.15301 5.86659 8.7369 6.68029 7.98818C6.26587 8.19198 5.71943 8.31112 4.99994 8.31112C4.47139 8.31112 4.03824 8.23936 3.681 8.11564Z" fill="#0C362F"/>
<path d="M7.32332 0C6.35635 0 5.48692 0.545237 5.01262 1.41931C4.53797 0.545438 3.66859 0 2.7022 0C1.23138 0 0.0338008 1.27491 0.0245654 2.84588C-0.0266864 3.17225 -0.40912 6.55952 5.09667 9.94338L5.18842 10L5.28131 9.94525C5.47382 9.83192 10 7.11835 10 2.86426C10.0002 1.28479 8.79928 0 7.32332 0ZM5.19025 9.53538C-0.120953 6.2285 0.392356 2.93562 0.397972 2.90339L0.401758 2.86429C0.401758 1.50729 1.43397 0.403397 2.70237 0.403397C3.6488 0.403397 4.48687 1.01215 4.83766 1.95422L5.01274 2.42477L5.18792 1.95422C5.53826 1.01231 6.37661 0.40362 7.3235 0.40362C8.59172 0.40362 9.62333 1.50767 9.62333 2.86446C9.62327 6.55849 5.83046 9.12839 5.19025 9.53538Z" fill="#0C362F"/>
<path d="M6.384 3.44491C6.45621 3.05264 6.70521 2.67268 6.70844 2.66801C6.76843 2.57702 6.749 2.45076 6.66378 2.38604C6.57973 2.32128 6.46177 2.34246 6.4012 2.4332C6.38905 2.45096 6.20258 2.73502 6.08414 3.09847C5.84367 2.95725 5.58246 2.83297 5.45277 2.77713L5.3355 2.72654C5.24695 2.68822 5.1796 2.61559 5.14582 2.52356C5.05746 2.51577 4.97413 2.51448 4.88517 2.52158C4.85201 2.61455 4.78416 2.68819 4.6946 2.72668L4.57714 2.77726C4.456 2.82972 4.21975 2.94185 3.99265 3.07138C3.87407 2.72142 3.69575 2.45096 3.68466 2.4334C3.62359 2.34246 3.50551 2.32128 3.42114 2.38624C3.33586 2.45096 3.31631 2.57722 3.37717 2.66821C3.44862 2.77608 3.59869 3.04634 3.67466 3.33138C3.65916 3.36784 3.64747 3.40861 3.64616 3.44413C3.61733 4.02718 3.49842 4.81577 3.09483 5.26259C2.94218 5.43116 2.76011 5.54191 2.55818 5.59009C2.63298 6.70723 3.04376 7.77298 4.99976 7.77298C6.89038 7.77298 7.37051 6.94148 7.44429 5.58304C7.25324 5.53183 7.08045 5.42359 6.9352 5.26261C6.53205 4.81568 6.41293 4.02763 6.384 3.44491ZM5.90678 6.45505H5.41071V5.47022H4.59201V6.45505H4.09595V4.10208H4.59201V5.00609H5.41071V4.10208H5.90678V6.45505Z" fill="#0C362F"/>
</svg>
