<svg width="45" height="47" viewBox="0 0 45 47" fill="none" xmlns="http://www.w3.org/2000/svg">
<path d="M27.8864 4.7927C25.5066 4.7927 23.5803 4.7927 23.5803 4.7927L22.2459 1.40368C21.5129 -0.467892 20.3176 -0.467892 19.586 1.40368C18.8462 3.27633 18.2522 4.7927 18.2522 4.7927H13.9426C11.5629 4.7927 11.194 5.73248 13.119 6.88854C15.0489 8.04269 16.6071 8.98202 16.6071 8.98202L15.2722 12.371C14.5386 14.2432 15.5038 14.8239 17.4326 13.6668C19.3549 12.5101 20.9145 11.5718 20.9145 11.5718L24.3991 13.6668C26.3244 14.823 27.2875 14.2432 26.5539 12.371C25.8192 10.4984 25.2242 8.98202 25.2242 8.98202L28.7112 6.88854C30.6335 5.73248 30.265 4.7927 27.8864 4.7927Z" fill="#0C362F"/>
<path d="M11.871 16.8866C11.871 16.8866 10.2499 17.7864 9.6749 22.158C12.7063 25.4048 16.4737 24.874 18.1325 24.4209C18.2832 24.3788 18.4734 24.1755 18.4834 24.0459C18.7037 20.9244 15.5873 16.763 14.4647 15.3738C13.5616 15.6714 12.6827 16.153 11.871 16.8866Z" fill="#0C362F"/>
<path d="M29.7568 10.1648L30.297 11.5418C30.6527 12.4512 30.7087 13.2255 30.5059 13.8729C36.7838 16.3572 41.1412 21.6465 41.1412 27.7752C41.1412 36.2776 32.7783 43.1942 22.4991 43.1942C22.3894 43.1942 22.2817 43.1814 22.1733 43.1797L22.1434 42.6049C22.1296 42.3479 22.3546 42.0659 22.6455 41.9763L26.2525 40.857C26.2525 40.857 27.9442 40.9351 28.648 39.8849C29.0043 39.3555 29.3355 38.9855 29.5783 38.747C29.7775 38.5508 29.7749 38.2709 29.5511 38.0917C28.815 37.5019 27.3326 36.2101 27.1926 35.2229C27.0042 33.9015 24.7503 32.8131 21.8365 32.6582C21.8365 32.6582 20.2894 31.6743 20.1853 29.9765C20.1687 29.7192 19.9364 29.4636 19.6342 29.5256C18.8553 29.6836 17.5338 30.5107 17.4681 34.2871C17.4681 34.2871 13.3308 36.0212 12.9452 40.9908C12.6159 40.8277 12.286 40.6668 11.97 40.4867C12.1204 38.9763 12.582 37.7729 13.1227 36.8646C14.1959 35.0599 15.7025 34.0565 16.471 33.6331C16.6366 29.9056 18.099 28.8165 19.3202 28.5671C19.6952 28.4907 20.0888 28.557 20.4007 28.7497C20.7558 28.9684 20.9819 29.3285 21.006 29.7153C21.0687 30.7171 21.7846 31.4202 22.1244 31.6997C22.6745 31.7418 23.2002 31.8144 23.6942 31.9137L23.7404 31.5621L24.1178 28.5256C24.1819 28.0134 24.7395 27.5807 25.3556 27.5081C27.6962 27.2262 32.9115 26.0793 33.2509 21.4191C33.2884 20.9044 32.7646 20.3875 32.1588 20.2656L27.1941 19.263C27.1941 19.263 27.0525 18.2719 25.6436 17.8645C24.6168 17.5666 21.0797 15.8863 17.5998 16.4791C18.9154 18.1355 21.8423 22.2187 21.6111 25.4847C21.5764 25.9985 21.0825 26.5289 20.4896 26.6907C19.9196 26.8469 18.8957 27.0652 17.6514 27.0652C15.8488 27.0652 13.5852 26.607 11.5455 24.8439C11.5055 25.4035 11.4826 26.01 11.4787 26.6652C11.4556 30.0466 6.26278 33.2526 6.26278 33.2526L5.64256 34.3145C4.51125 32.3256 3.85947 30.1154 3.85947 27.7752C3.85947 21.4899 8.43518 16.0798 14.9709 13.6815C14.8351 13.0722 14.9008 12.3656 15.2237 11.5412L15.831 10C6.66947 12.3557 0 19.4326 0 27.7752C0 38.0361 10.0939 46.3849 22.5002 46.3849C34.9065 46.3849 45 38.0361 45 27.7752C44.9989 19.614 38.6121 12.6682 29.7568 10.1648ZM25.0524 35.4543C25.4027 35.4543 25.6871 35.6883 25.6871 35.9792C25.6871 36.2696 25.4027 36.5037 25.0524 36.5037C24.7023 36.5037 24.4183 36.2697 24.4183 35.9792C24.4183 35.6883 24.7023 35.4543 25.0524 35.4543ZM24.4183 20.2992C24.7695 20.2992 25.0524 20.5335 25.0524 20.8238C25.0524 21.114 24.7696 21.3481 24.4183 21.3481C24.0668 21.3481 23.7833 21.1141 23.7833 20.8238C23.7838 20.5335 24.0683 20.2992 24.4183 20.2992Z" fill="#0C362F"/>
</svg>
